<svg width="1200" height="1200" viewBox="0 0 1200 1200" fill="none" xmlns="http://www.w3.org/2000/svg">
<path d="M669.727 273.516C646.836 271.04 623.577 269.621 600 269.268C496.975 269.725 390.177 294.785 289.087 342.804C214.029 379.926 140.914 432.333 77.417 496.978C46.232 529.978 6.431 577.76 0 628.74C0.76 672.902 48.153 727.41 77.417 760.504C136.96 822.61 208.171 873.517 289.087 914.678C291.837 916.013 294.597 917.332 297.363 918.633L222.291 1049.73L324.296 1110.02L875.712 149.988L777.526 89.98L669.727 273.516V273.516ZM902.563 338.995L827.636 468.852C862.106 513.634 882.568 568.858 882.568 628.74C882.568 777.997 756.046 899.004 599.926 899.004C593.177 899.004 586.636 898.276 580.004 897.832L530.419 983.672C553.287 986.121 576.409 987.905 599.999 988.213C703.122 987.75 809.86 962.401 910.839 914.678C985.897 877.556 1059.09 825.149 1122.58 760.504C1153.77 727.505 1193.57 679.722 1200 628.74C1199.24 584.579 1151.85 530.071 1122.58 496.977C1063.04 434.871 991.755 383.964 910.839 342.802C908.108 341.478 905.312 340.287 902.563 338.995V338.995ZM599.927 358.478C606.773 358.478 613.565 358.752 620.288 359.21L562.207 459.771C480.693 476.297 419.531 545.651 419.531 628.668C419.531 649.522 423.372 669.487 430.444 687.993C430.452 688.014 430.436 688.046 430.444 688.067L372.216 788.921C337.665 744.098 317.284 688.692 317.284 628.739C317.285 479.484 443.808 358.477 599.927 358.478V358.478ZM768.896 570.513L638.013 797.271C719.089 780.434 779.81 711.396 779.81 628.668C779.81 608.194 775.724 588.729 768.896 570.513V570.513Z" fill="black"/>
</svg>
