<svg width="1200" height="1200" viewBox="0 0 1200 1200" fill="none" xmlns="http://www.w3.org/2000/svg">
<path d="M779.843 599.925C779.843 695.256 699.179 772.537 599.674 772.537C500.17 772.537 419.506 695.256 419.506 599.925C419.506 504.593 500.17 427.313 599.674 427.313C699.179 427.312 779.843 504.594 779.843 599.925ZM600 240.521C496.975 240.978 390.186 266.059 289.096 314.078C214.038 351.2 140.89 403.574 77.394 468.219C46.208 501.218 6.431 549 0 599.981C0.76 644.142 48.13 698.65 77.394 731.744C136.937 793.85 208.18 844.762 289.096 885.923C383.367 931.674 487.712 958.015 600 959.48C703.123 959.016 809.888 933.646 910.866 885.923C985.924 848.801 1059.11 796.389 1122.61 731.744C1153.79 698.745 1193.57 650.962 1200 599.981C1199.24 555.82 1151.87 501.31 1122.61 468.217C1063.06 406.111 991.782 355.238 910.866 314.076C816.644 268.36 712.042 242.2 600 240.521ZM599.924 329.769C756.043 329.769 882.599 450.763 882.599 600.02C882.599 749.276 756.043 870.27 599.924 870.27C443.805 870.27 317.249 749.275 317.249 600.02C317.249 450.763 443.805 329.769 599.924 329.769Z" fill="black"/>
</svg>
