<svg width="512" height="512" viewBox="0 0 512 512" fill="none" xmlns="http://www.w3.org/2000/svg">
<path d="M320.188 23.375L250.938 126.438L254.625 180.5L279.188 144.125L294.344 121.655L296.25 148.687L299.22 190.969L328.656 147.155L320.186 23.375H320.188ZM88.155 85.655L142.843 197.281L190.873 220.813L171.468 181.657L159.218 156.937L183.968 169.127L223.311 188.501L199.686 140.313L88.156 85.656L88.155 85.655ZM279.53 177.031L253.688 215.313L249.125 222.063L241.812 218.47L200.469 198.094L220.719 238.969L224.343 246.312L217.563 250.874L179.155 276.749L225.375 279.779L233.499 280.312L234.062 288.468L237.28 334.185L262.53 296.155L267.063 289.311L274.438 292.936L316 313.406L295.656 271.812L292.062 264.469L298.875 259.936L336.813 234.686L291.469 231.78L283.311 231.25L282.749 223.094L279.529 177.031H279.53ZM366.063 184.721L321.031 214.971L365.595 217.845L393.22 219.625L370.187 234.939L334.375 258.782L387.063 262.377L490.031 193.157L366.064 184.721H366.063ZM128.656 248.314L25.656 317.532L149.656 325.972L193.656 296.408L150.626 293.564L123.344 291.784L146.03 276.5L182.437 252L128.657 248.312L128.656 248.314ZM325.686 290.689L344.813 329.782L356.813 354.346L332.281 342.283L293.064 322.941L316.626 371.066L428.126 425.691L373.438 314.066L325.688 290.691L325.686 290.689ZM217.469 318.969L187.312 363.845L195.78 487.625L265.03 384.563L261.438 331.626L237.656 367.376L222.5 390.25L220.562 362.875L217.469 318.969V318.969Z" fill="black"/>
</svg>
