<svg width="512" height="512" viewBox="0 0 512 512" fill="none" xmlns="http://www.w3.org/2000/svg">
<path d="M436.406 29.625L418.312 71.845L369.75 77.75L411.906 103.406L413.281 116.876C367.938 90.74 302.435 75.36 214.78 82.31L194.594 78.967L170.469 40.56L170.969 80.34L121.749 96.778L176.812 101.342L184.655 135.122L201.749 97.342L219.655 94.592C423.648 116.622 497.13 299.342 297.53 302.217L302.75 264.622L339.5 220.902L288.156 195.934L257.936 147.466L218.313 188.59L214.188 189.62C-8.39995 163.078 -31.708 304.485 98.844 376.125L86.906 388.813L39.8441 374.5L72.8741 413.906L57.75 456.436L94.125 425.281L141.155 443.376L110.781 399.501L115.471 384.471C177.901 413.119 269.323 426.631 385.971 405.188C144.929 438.568 21.8291 267.248 166.688 209.501L189.72 252.751L185.72 309.721L241.938 299.751L261.188 307.564C479.443 410.172 558.648 223.647 433.031 129.814L447.407 107.594L493.877 91.094L451.97 76.282L436.406 29.627V29.625ZM34.53 79.03L39.375 105.125L19.905 127.125L47.125 123.875L64.6881 147.219L65.375 117.749L90.155 99.843L56.937 98.123L34.531 79.03H34.53ZM393.094 377.53L407.344 429.188L375.969 470.25L425.561 457.562L459.249 491.844L456.719 440.438L491.936 410.063L440.343 411.625L393.093 377.531L393.094 377.53Z" fill="black"/>
</svg>
